<svg xmlns="http://www.w3.org/2000/svg" xmlns:xlink="http://www.w3.org/1999/xlink" version="1.1" class="marks" width="514" height="342" viewBox="0 0 514 342"><rect width="514" height="342" fill="white"/><g fill="none" stroke-miterlimit="10" transform="translate(20,5)"><g class="mark-group role-frame root" role="graphics-object" aria-roledescription="group mark container"><g transform="translate(0,0)"><path class="background" aria-hidden="true" d="M0.5,0.5h400v300h-400Z" stroke="#ddd"/><g><g class="mark-group role-axis" aria-hidden="true"><g transform="translate(0.5,300.5)"><path class="background" aria-hidden="true" d="M0,0h0v0h0Z" pointer-events="none"/><g><g class="mark-rule role-axis-grid" pointer-events="none"><line transform="translate(0,-300)" x2="0" y2="300" stroke="#ddd" stroke-width="1" opacity="1"/><line transform="translate(33,-300)" x2="0" y2="300" stroke="#ddd" stroke-width="1" opacity="1"/><line transform="translate(67,-300)" x2="0" y2="300" stroke="#ddd" stroke-width="1" opacity="1"/><line transform="translate(100,-300)" x2="0" y2="300" stroke="#ddd" stroke-width="1" opacity="1"/><line transform="translate(133,-300)" x2="0" y2="300" stroke="#ddd" stroke-width="1" opacity="1"/><line transform="translate(167,-300)" x2="0" y2="300" stroke="#ddd" stroke-width="1" opacity="1"/><line transform="translate(200,-300)" x2="0" y2="300" stroke="#ddd" stroke-width="1" opacity="1"/><line transform="translate(233,-300)" x2="0" y2="300" stroke="#ddd" stroke-width="1" opacity="1"/><line transform="translate(267,-300)" x2="0" y2="300" stroke="#ddd" stroke-width="1" opacity="1"/><line transform="translate(300,-300)" x2="0" y2="300" stroke="#ddd" stroke-width="1" opacity="1"/><line transform="translate(333,-300)" x2="0" y2="300" stroke="#ddd" stroke-width="1" opacity="1"/><line transform="translate(367,-300)" x2="0" y2="300" stroke="#ddd" stroke-width="1" opacity="1"/><line transform="translate(400,-300)" x2="0" y2="300" stroke="#ddd" stroke-width="1" opacity="1"/></g></g><path class="foreground" aria-hidden="true" d="" pointer-events="none" display="none"/></g></g><g class="mark-group role-axis" aria-hidden="true"><g transform="translate(0.5,0.5)"><path class="background" aria-hidden="true" d="M0,0h0v0h0Z" pointer-events="none"/><g><g class="mark-rule role-axis-grid" pointer-events="none"><line transform="translate(0,300)" x2="400" y2="0" stroke="#ddd" stroke-width="1" opacity="1"/><line transform="translate(0,257)" x2="400" y2="0" stroke="#ddd" stroke-width="1" opacity="1"/><line transform="translate(0,214)" x2="400" y2="0" stroke="#ddd" stroke-width="1" opacity="1"/><line transform="translate(0,171)" x2="400" y2="0" stroke="#ddd" stroke-width="1" opacity="1"/><line transform="translate(0,129)" x2="400" y2="0" stroke="#ddd" stroke-width="1" opacity="1"/><line transform="translate(0,86)" x2="400" y2="0" stroke="#ddd" stroke-width="1" opacity="1"/><line transform="translate(0,43)" x2="400" y2="0" stroke="#ddd" stroke-width="1" opacity="1"/><line transform="translate(0,0)" x2="400" y2="0" stroke="#ddd" stroke-width="1" opacity="1"/></g></g><path class="foreground" aria-hidden="true" d="" pointer-events="none" display="none"/></g></g><g class="mark-group role-axis" role="graphics-symbol" aria-roledescription="axis" aria-label="X-axis titled 'Year' for a linear scale with values from 1900 to 2020"><g transform="translate(0.5,300.5)"><path class="background" aria-hidden="true" d="M0,0h0v0h0Z" pointer-events="none"/><g><g class="mark-rule role-axis-tick" pointer-events="none"><line transform="translate(0,0)" x2="0" y2="5" stroke="#888" stroke-width="1" opacity="1"/><line transform="translate(33,0)" x2="0" y2="5" stroke="#888" stroke-width="1" opacity="1"/><line transform="translate(67,0)" x2="0" y2="5" stroke="#888" stroke-width="1" opacity="1"/><line transform="translate(100,0)" x2="0" y2="5" stroke="#888" stroke-width="1" opacity="1"/><line transform="translate(133,0)" x2="0" y2="5" stroke="#888" stroke-width="1" opacity="1"/><line transform="translate(167,0)" x2="0" y2="5" stroke="#888" stroke-width="1" opacity="1"/><line transform="translate(200,0)" x2="0" y2="5" stroke="#888" stroke-width="1" opacity="1"/><line transform="translate(233,0)" x2="0" y2="5" stroke="#888" stroke-width="1" opacity="1"/><line transform="translate(267,0)" x2="0" y2="5" stroke="#888" stroke-width="1" opacity="1"/><line transform="translate(300,0)" x2="0" y2="5" stroke="#888" stroke-width="1" opacity="1"/><line transform="translate(333,0)" x2="0" y2="5" stroke="#888" stroke-width="1" opacity="1"/><line transform="translate(367,0)" x2="0" y2="5" stroke="#888" stroke-width="1" opacity="1"/><line transform="translate(400,0)" x2="0" y2="5" stroke="#888" stroke-width="1" opacity="1"/></g><g class="mark-text role-axis-label" pointer-events="none"><text text-anchor="start" transform="translate(0,15)" font-family="sans-serif" font-size="10px" fill="#000" opacity="1">1900</text><text text-anchor="middle" transform="translate(33.33333333333333,15)" font-family="sans-serif" font-size="10px" fill="#000" opacity="0">1910</text><text text-anchor="middle" transform="translate(66.66666666666666,15)" font-family="sans-serif" font-size="10px" fill="#000" opacity="1">1920</text><text text-anchor="middle" transform="translate(100,15)" font-family="sans-serif" font-size="10px" fill="#000" opacity="0">1930</text><text text-anchor="middle" transform="translate(133.33333333333331,15)" font-family="sans-serif" font-size="10px" fill="#000" opacity="1">1940</text><text text-anchor="middle" transform="translate(166.66666666666669,15)" font-family="sans-serif" font-size="10px" fill="#000" opacity="0">1950</text><text text-anchor="middle" transform="translate(200,15)" font-family="sans-serif" font-size="10px" fill="#000" opacity="1">1960</text><text text-anchor="middle" transform="translate(233.33333333333334,15)" font-family="sans-serif" font-size="10px" fill="#000" opacity="0">1970</text><text text-anchor="middle" transform="translate(266.66666666666663,15)" font-family="sans-serif" font-size="10px" fill="#000" opacity="1">1980</text><text text-anchor="middle" transform="translate(300,15)" font-family="sans-serif" font-size="10px" fill="#000" opacity="0">1990</text><text text-anchor="middle" transform="translate(333.33333333333337,15)" font-family="sans-serif" font-size="10px" fill="#000" opacity="1">2000</text><text text-anchor="middle" transform="translate(366.66666666666663,15)" font-family="sans-serif" font-size="10px" fill="#000" opacity="0">2010</text><text text-anchor="end" transform="translate(400,15)" font-family="sans-serif" font-size="10px" fill="#000" opacity="1">2020</text></g><g class="mark-rule role-axis-domain" pointer-events="none"><line transform="translate(0,0)" x2="400" y2="0" stroke="#888" stroke-width="1" opacity="1"/></g><g class="mark-text role-axis-title" pointer-events="none"><text text-anchor="middle" transform="translate(200,30)" font-family="sans-serif" font-size="11px" font-weight="bold" fill="#000" opacity="1">Year</text></g></g><path class="foreground" aria-hidden="true" d="" pointer-events="none" display="none"/></g></g><g class="mark-group role-axis" role="graphics-symbol" aria-roledescription="axis" aria-label="Y-axis titled 'Percent Population Speakers' for a linear scale with values from 0 to 70"><g transform="translate(0.5,0.5)"><path class="background" aria-hidden="true" d="M0,0h0v0h0Z" pointer-events="none"/><g><g class="mark-rule role-axis-domain" pointer-events="none"><line transform="translate(0,300)" x2="0" y2="-300" stroke="#888" stroke-width="1" opacity="1"/></g><g class="mark-text role-axis-title" pointer-events="none"><text text-anchor="middle" transform="translate(-4,150) rotate(-90) translate(0,-2)" font-family="sans-serif" font-size="11px" font-weight="bold" fill="#000" opacity="1">Percent Population Speakers</text></g></g><path class="foreground" aria-hidden="true" d="" pointer-events="none" display="none"/></g></g><g class="mark-group role-scope pathgroup" role="graphics-object" aria-roledescription="group mark container"><g transform="translate(0,0)"><path class="background" aria-hidden="true" d="M0,0h400v300h-400Z"/><g><g class="mark-area role-mark marks" clip-path="url(#clip1)" role="graphics-object" aria-roledescription="area mark container"><path aria-label="language: Spanish; year: 1900; shifted_percent: 0" role="graphics-symbol" aria-roledescription="area mark" d="M0,282.857L5.556,282.5C11.111,282.143,22.222,281.429,33.333,281.786C44.444,282.143,55.556,283.571,66.667,283.929C77.778,284.286,88.889,283.571,100,282.857C111.111,282.143,122.222,281.429,133.333,281.071C144.444,280.714,155.556,280.714,166.667,277.857C177.778,275,188.889,269.286,200,258.214C211.111,247.143,222.222,230.714,233.333,221.429C244.444,212.143,255.556,210,266.667,207.5C277.778,205,288.889,202.143,300,200.714C311.111,199.286,322.222,199.286,333.333,198.929C344.444,198.571,355.556,197.857,366.667,197.143C377.778,196.429,388.889,195.714,394.444,195.357L400,195L400,229.286L394.444,229.643C388.889,230,377.778,230.714,366.667,232.143C355.556,233.571,344.444,235.714,333.333,237.5C322.222,239.286,311.111,240.714,300,243.571C288.889,246.429,277.778,250.714,266.667,254.643C255.556,258.571,244.444,262.143,233.333,266.429C222.222,270.714,211.111,275.714,200,281.071C188.889,286.429,177.778,292.143,166.667,295C155.556,297.857,144.444,297.857,133.333,298.214C122.222,298.571,111.111,299.286,100,299.286C88.889,299.286,77.778,298.571,66.667,297.5C55.556,296.429,44.444,295,33.333,292.5C22.222,290,11.111,286.429,5.556,284.643L0,282.857Z" fill="#4c78a8"/></g></g><path class="foreground" aria-hidden="true" d="" display="none"/></g><g transform="translate(0,0)"><path class="background" aria-hidden="true" d="M0,0h400v300h-400Z"/><g><g class="mark-area role-mark marks" clip-path="url(#clip2)" role="graphics-object" aria-roledescription="area mark container"><path aria-label="language: Hindi; year: 1900; shifted_percent: 19" role="graphics-symbol" aria-roledescription="area mark" d="M0,115.714L5.556,114.643C11.111,113.571,22.222,111.429,33.333,109.643C44.444,107.857,55.556,106.429,66.667,104.643C77.778,102.857,88.889,100.714,100,106.429C111.111,112.143,122.222,125.714,133.333,132.5C144.444,139.286,155.556,139.286,166.667,139.286C177.778,139.286,188.889,139.286,200,138.929C211.111,138.571,222.222,137.857,233.333,137.857C244.444,137.857,255.556,138.571,266.667,138.929C277.778,139.286,288.889,139.286,300,139.286C311.111,139.286,322.222,139.286,333.333,139.643C344.444,140,355.556,140.714,366.667,141.429C377.778,142.143,388.889,142.857,394.444,143.214L400,143.571L400,156.429L394.444,156.071C388.889,155.714,377.778,155,366.667,154.286C355.556,153.571,344.444,152.857,333.333,152.5C322.222,152.143,311.111,152.143,300,152.143C288.889,152.143,277.778,152.143,266.667,152.5C255.556,152.857,244.444,153.571,233.333,161.429C222.222,169.286,211.111,184.286,200,193.214C188.889,202.143,177.778,205,166.667,207.143C155.556,209.286,144.444,210.714,133.333,205.357C122.222,200,111.111,187.857,100,183.571C88.889,179.286,77.778,182.857,66.667,185.357C55.556,187.857,44.444,189.286,33.333,191.071C22.222,192.857,11.111,195,5.556,196.071L0,197.143Z" fill="#eeca3b"/></g></g><path class="foreground" aria-hidden="true" d="" display="none"/></g><g transform="translate(0,0)"><path class="background" aria-hidden="true" d="M0,0h400v300h-400Z"/><g><g class="mark-area role-mark marks" clip-path="url(#clip3)" role="graphics-object" aria-roledescription="area mark container"><path aria-label="language: Russian; year: 1900; shifted_percent: 14" role="graphics-symbol" aria-roledescription="area mark" d="M0,222.857L5.556,221.786C11.111,220.714,22.222,218.571,33.333,217.5C44.444,216.429,55.556,216.429,66.667,216.071C77.778,215.714,88.889,215,100,220.714C111.111,226.429,122.222,238.571,133.333,244.643C144.444,250.714,155.556,250.714,166.667,248.571C177.778,246.429,188.889,242.143,200,232.5C211.111,222.857,222.222,207.857,233.333,199.286C244.444,190.714,255.556,188.571,266.667,186.786C277.778,185,288.889,183.571,300,182.857C311.111,182.143,322.222,182.143,333.333,181.786C344.444,181.429,355.556,180.714,366.667,180.714C377.778,180.714,388.889,181.429,394.444,181.786L400,182.143L400,195L394.444,195.357C388.889,195.714,377.778,196.429,366.667,197.143C355.556,197.857,344.444,198.571,333.333,198.929C322.222,199.286,311.111,199.286,300,200.714C288.889,202.143,277.778,205,266.667,207.5C255.556,210,244.444,212.143,233.333,221.429C222.222,230.714,211.111,247.143,200,258.214C188.889,269.286,177.778,275,166.667,277.857C155.556,280.714,144.444,280.714,133.333,281.071C122.222,281.429,111.111,282.143,100,282.857C88.889,283.571,77.778,284.286,66.667,283.929C55.556,283.571,44.444,282.143,33.333,281.786C22.222,281.429,11.111,282.143,5.556,282.5L0,282.857Z" fill="#bab0ac"/></g></g><path class="foreground" aria-hidden="true" d="" display="none"/></g><g transform="translate(0,0)"><path class="background" aria-hidden="true" d="M0,0h400v300h-400Z"/><g><g class="mark-area role-mark marks" clip-path="url(#clip4)" role="graphics-object" aria-roledescription="area mark container"><path aria-label="language: French; year: 1900; shifted_percent: 7" role="graphics-symbol" aria-roledescription="area mark" d="M0,68.571L5.556,67.5C11.111,66.429,22.222,64.286,33.333,65.357C44.444,66.429,55.556,70.714,66.667,71.786C77.778,72.857,88.889,70.714,100,70C111.111,69.286,122.222,70,133.333,70.357C144.444,70.714,155.556,70.714,166.667,72.143C177.778,73.571,188.889,76.429,200,78.929C211.111,81.429,222.222,83.571,233.333,86.429C244.444,89.286,255.556,92.857,266.667,95.357C277.778,97.857,288.889,99.286,300,100.714C311.111,102.143,322.222,103.571,333.333,105.357C344.444,107.143,355.556,109.286,366.667,110.714C377.778,112.143,388.889,112.857,394.444,113.214L400,113.571L400,143.571L394.444,143.214C388.889,142.857,377.778,142.143,366.667,141.429C355.556,140.714,344.444,140,333.333,139.643C322.222,139.286,311.111,139.286,300,139.286C288.889,139.286,277.778,139.286,266.667,138.929C255.556,138.571,244.444,137.857,233.333,137.857C222.222,137.857,211.111,138.571,200,138.929C188.889,139.286,177.778,139.286,166.667,139.286C155.556,139.286,144.444,139.286,133.333,132.5C122.222,125.714,111.111,112.143,100,106.429C88.889,100.714,77.778,102.857,66.667,101.786C55.556,100.714,44.444,96.429,33.333,95.357C22.222,94.286,11.111,96.429,5.556,97.5L0,98.571Z" fill="#72b7b2"/></g></g><path class="foreground" aria-hidden="true" d="" display="none"/></g><g transform="translate(0,0)"><path class="background" aria-hidden="true" d="M0,0h400v300h-400Z"/><g><g class="mark-area role-mark marks" clip-path="url(#clip5)" role="graphics-object" aria-roledescription="area mark container"><path aria-label="language: Bangali; year: 1900; shifted_percent: 6" role="graphics-symbol" aria-roledescription="area mark" d="M0,25.714L5.556,23.929C11.111,22.143,22.222,18.571,33.333,18.929C44.444,19.286,55.556,23.571,66.667,27.5C77.778,31.429,88.889,35,100,37.143C111.111,39.286,122.222,40,133.333,40.357C144.444,40.714,155.556,40.714,166.667,42.857C177.778,45,188.889,49.286,200,53.214C211.111,57.143,222.222,60.714,233.333,64.286C244.444,67.857,255.556,71.429,266.667,74.643C277.778,77.857,288.889,80.714,300,82.857C311.111,85,322.222,86.429,333.333,88.214C344.444,90,355.556,92.143,366.667,93.571C377.778,95,388.889,95.714,394.444,96.071L400,96.429L400,113.571L394.444,113.214C388.889,112.857,377.778,112.143,366.667,110.714C355.556,109.286,344.444,107.143,333.333,105.357C322.222,103.571,311.111,102.143,300,100.714C288.889,99.286,277.778,97.857,266.667,95.357C255.556,92.857,244.444,89.286,233.333,86.429C222.222,83.571,211.111,81.429,200,78.929C188.889,76.429,177.778,73.571,166.667,72.143C155.556,70.714,144.444,70.714,133.333,70.357C122.222,70,111.111,69.286,100,67.143C88.889,65,77.778,61.429,66.667,57.5C55.556,53.571,44.444,49.286,33.333,48.214C22.222,47.143,11.111,49.286,5.556,50.357L0,51.429Z" fill="#f58518"/></g></g><path class="foreground" aria-hidden="true" d="" display="none"/></g><g transform="translate(0,0)"><path class="background" aria-hidden="true" d="M0,0h400v300h-400Z"/><g><g class="mark-area role-mark marks" clip-path="url(#clip6)" role="graphics-object" aria-roledescription="area mark container"><path aria-label="language: Japanese; year: 1900; shifted_percent: 6" role="graphics-symbol" aria-roledescription="area mark" d="M0,197.143L5.556,196.071C11.111,195,22.222,192.857,33.333,191.071C44.444,189.286,55.556,187.857,66.667,185.357C77.778,182.857,88.889,179.286,100,183.571C111.111,187.857,122.222,200,133.333,208.929C144.444,217.857,155.556,223.571,166.667,224.286C177.778,225,188.889,220.714,200,211.071C211.111,201.429,222.222,186.429,233.333,178.571C244.444,170.714,255.556,170,266.667,168.929C277.778,167.857,288.889,166.429,300,165.714C311.111,165,322.222,165,333.333,165.357C344.444,165.714,355.556,166.429,366.667,167.143C377.778,167.857,388.889,168.571,394.444,168.929L400,169.286L400,169.286L394.444,168.929C388.889,168.571,377.778,167.857,366.667,167.143C355.556,166.429,344.444,165.714,333.333,165.357C322.222,165,311.111,165,300,165.714C288.889,166.429,277.778,167.857,266.667,168.929C255.556,170,244.444,170.714,233.333,178.571C222.222,186.429,211.111,201.429,200,211.071C188.889,220.714,177.778,225,166.667,227.143C155.556,229.286,144.444,229.286,133.333,223.214C122.222,217.143,111.111,205,100,202.857C88.889,200.714,77.778,208.571,66.667,212.5C55.556,216.429,44.444,216.429,33.333,217.5C22.222,218.571,11.111,220.714,5.556,221.786L0,222.857Z" fill="#ff9da6"/></g></g><path class="foreground" aria-hidden="true" d="" display="none"/></g><g transform="translate(0,0)"><path class="background" aria-hidden="true" d="M0,0h400v300h-400Z"/><g><g class="mark-area role-mark marks" clip-path="url(#clip7)" role="graphics-object" aria-roledescription="area mark container"><path aria-label="language: Chinese Wu; year: 1900; shifted_percent: 4" role="graphics-symbol" aria-roledescription="area mark" d="M0,51.429L5.556,50.357C11.111,49.286,22.222,47.143,33.333,48.214C44.444,49.286,55.556,53.571,66.667,57.5C77.778,61.429,88.889,65,100,67.143C111.111,69.286,122.222,70,133.333,70.357C144.444,70.714,155.556,70.714,166.667,72.143C177.778,73.571,188.889,76.429,200,78.929C211.111,81.429,222.222,83.571,233.333,86.429C244.444,89.286,255.556,92.857,266.667,95.357C277.778,97.857,288.889,99.286,300,100.714C311.111,102.143,322.222,103.571,333.333,105.357C344.444,107.143,355.556,109.286,366.667,110.714C377.778,112.143,388.889,112.857,394.444,113.214L400,113.571L400,113.571L394.444,113.214C388.889,112.857,377.778,112.143,366.667,110.714C355.556,109.286,344.444,107.143,333.333,105.357C322.222,103.571,311.111,102.143,300,100.714C288.889,99.286,277.778,97.857,266.667,95.357C255.556,92.857,244.444,89.286,233.333,86.429C222.222,83.571,211.111,81.429,200,78.929C188.889,76.429,177.778,73.571,166.667,72.143C155.556,70.714,144.444,70.714,133.333,70.357C122.222,70,111.111,69.286,100,70C88.889,70.714,77.778,72.857,66.667,71.786C55.556,70.714,44.444,66.429,33.333,65.357C22.222,64.286,11.111,66.429,5.556,67.5L0,68.571Z" fill="#e45756"/></g></g><path class="foreground" aria-hidden="true" d="" display="none"/></g><g transform="translate(0,0)"><path class="background" aria-hidden="true" d="M0,0h400v300h-400Z"/><g><g class="mark-area role-mark marks" clip-path="url(#clip8)" role="graphics-object" aria-roledescription="area mark container"><path aria-label="language: German; year: 1900; shifted_percent: 4" role="graphics-symbol" aria-roledescription="area mark" d="M0,98.571L5.556,97.5C11.111,96.429,22.222,94.286,33.333,95.357C44.444,96.429,55.556,100.714,66.667,101.786C77.778,102.857,88.889,100.714,100,106.429C111.111,112.143,122.222,125.714,133.333,132.5C144.444,139.286,155.556,139.286,166.667,139.286C177.778,139.286,188.889,139.286,200,138.929C211.111,138.571,222.222,137.857,233.333,137.857C244.444,137.857,255.556,138.571,266.667,138.929C277.778,139.286,288.889,139.286,300,139.286C311.111,139.286,322.222,139.286,333.333,139.643C344.444,140,355.556,140.714,366.667,141.429C377.778,142.143,388.889,142.857,394.444,143.214L400,143.571L400,143.571L394.444,143.214C388.889,142.857,377.778,142.143,366.667,141.429C355.556,140.714,344.444,140,333.333,139.643C322.222,139.286,311.111,139.286,300,139.286C288.889,139.286,277.778,139.286,266.667,138.929C255.556,138.571,244.444,137.857,233.333,137.857C222.222,137.857,211.111,138.571,200,138.929C188.889,139.286,177.778,139.286,166.667,139.286C155.556,139.286,144.444,139.286,133.333,132.5C122.222,125.714,111.111,112.143,100,106.429C88.889,100.714,77.778,102.857,66.667,104.643C55.556,106.429,44.444,107.857,33.333,109.643C22.222,111.429,11.111,113.571,5.556,114.643L0,115.714Z" fill="#54a24b"/></g></g><path class="foreground" aria-hidden="true" d="" display="none"/></g><g transform="translate(0,0)"><path class="background" aria-hidden="true" d="M0,0h400v300h-400Z"/><g><g class="mark-area role-mark marks" clip-path="url(#clip9)" role="graphics-object" aria-roledescription="area mark container"><path aria-label="language: Arabic; year: 1900; shifted_percent: 0" role="graphics-symbol" aria-roledescription="area mark" d="M0,25.714L5.556,23.929C11.111,22.143,22.222,18.571,33.333,16.071C44.444,13.571,55.556,12.143,66.667,11.071C77.778,10,88.889,9.286,100,9.286C111.111,9.286,122.222,10,133.333,10.357C144.444,10.714,155.556,10.714,166.667,13.571C177.778,16.429,188.889,22.143,200,27.5C211.111,32.857,222.222,37.857,233.333,42.143C244.444,46.429,255.556,50,266.667,53.929C277.778,57.857,288.889,62.143,300,65C311.111,67.857,322.222,69.286,333.333,71.071C344.444,72.857,355.556,75,366.667,76.429C377.778,77.857,388.889,78.571,394.444,78.929L400,79.286L400,96.429L394.444,96.071C388.889,95.714,377.778,95,366.667,93.571C355.556,92.143,344.444,90,333.333,88.214C322.222,86.429,311.111,85,300,82.857C288.889,80.714,277.778,77.857,266.667,74.643C255.556,71.429,244.444,67.857,233.333,64.286C222.222,60.714,211.111,57.143,200,53.214C188.889,49.286,177.778,45,166.667,42.857C155.556,40.714,144.444,40.714,133.333,40.357C122.222,40,111.111,39.286,100,37.143C88.889,35,77.778,31.429,66.667,27.5C55.556,23.571,44.444,19.286,33.333,18.929C22.222,18.571,11.111,22.143,5.556,23.929L0,25.714Z" fill="#4c78a8"/></g></g><path class="foreground" aria-hidden="true" d="" display="none"/></g><g transform="translate(0,0)"><path class="background" aria-hidden="true" d="M0,0h400v300h-400Z"/><g><g class="mark-area role-mark marks" clip-path="url(#clip10)" role="graphics-object" aria-roledescription="area mark container"><path aria-label="language: Portuguese; year: 1900; shifted_percent: 0" role="graphics-symbol" aria-roledescription="area mark" d="M0,222.857L5.556,221.786C11.111,220.714,22.222,218.571,33.333,217.5C44.444,216.429,55.556,216.429,66.667,212.5C77.778,208.571,88.889,200.714,100,202.857C111.111,205,122.222,217.143,133.333,223.214C144.444,229.286,155.556,229.286,166.667,227.143C177.778,225,188.889,220.714,200,211.071C211.111,201.429,222.222,186.429,233.333,178.571C244.444,170.714,255.556,170,266.667,168.929C277.778,167.857,288.889,166.429,300,165.714C311.111,165,322.222,165,333.333,165.357C344.444,165.714,355.556,166.429,366.667,167.143C377.778,167.857,388.889,168.571,394.444,168.929L400,169.286L400,182.143L394.444,181.786C388.889,181.429,377.778,180.714,366.667,180.714C355.556,180.714,344.444,181.429,333.333,181.786C322.222,182.143,311.111,182.143,300,182.857C288.889,183.571,277.778,185,266.667,186.786C255.556,188.571,244.444,190.714,233.333,199.286C222.222,207.857,211.111,222.857,200,232.5C188.889,242.143,177.778,246.429,166.667,248.571C155.556,250.714,144.444,250.714,133.333,244.643C122.222,238.571,111.111,226.429,100,220.714C88.889,215,77.778,215.714,66.667,216.071C55.556,216.429,44.444,216.429,33.333,217.5C22.222,218.571,11.111,220.714,5.556,221.786L0,222.857Z" fill="#9d755d"/></g></g><path class="foreground" aria-hidden="true" d="" display="none"/></g><g transform="translate(0,0)"><path class="background" aria-hidden="true" d="M0,0h400v300h-400Z"/><g><g class="mark-area role-mark marks" clip-path="url(#clip11)" role="graphics-object" aria-roledescription="area mark container"><path aria-label="language: Indonesian; year: 1900; shifted_percent: 0" role="graphics-symbol" aria-roledescription="area mark" d="M0,197.143L5.556,196.071C11.111,195,22.222,192.857,33.333,191.071C44.444,189.286,55.556,187.857,66.667,185.357C77.778,182.857,88.889,179.286,100,183.571C111.111,187.857,122.222,200,133.333,205.357C144.444,210.714,155.556,209.286,166.667,207.143C177.778,205,188.889,202.143,200,193.214C211.111,184.286,222.222,169.286,233.333,161.429C244.444,153.571,255.556,152.857,266.667,152.5C277.778,152.143,288.889,152.143,300,152.143C311.111,152.143,322.222,152.143,333.333,152.5C344.444,152.857,355.556,153.571,366.667,154.286C377.778,155,388.889,155.714,394.444,156.071L400,156.429L400,169.286L394.444,168.929C388.889,168.571,377.778,167.857,366.667,167.143C355.556,166.429,344.444,165.714,333.333,165.357C322.222,165,311.111,165,300,165.714C288.889,166.429,277.778,167.857,266.667,168.929C255.556,170,244.444,170.714,233.333,178.571C222.222,186.429,211.111,201.429,200,211.071C188.889,220.714,177.778,225,166.667,224.286C155.556,223.571,144.444,217.857,133.333,208.929C122.222,200,111.111,187.857,100,183.571C88.889,179.286,77.778,182.857,66.667,185.357C55.556,187.857,44.444,189.286,33.333,191.071C22.222,192.857,11.111,195,5.556,196.071L0,197.143Z" fill="#b279a2"/></g></g><path class="foreground" aria-hidden="true" d="" display="none"/></g></g><g class="mark-group role-legend" role="graphics-symbol" aria-roledescription="legend" aria-label="Symbol legend titled 'language' for fill color with 11 values: Arabic, Bangali, Chinese Wu, French, German, ending with Spanish"><g transform="translate(418,0)"><path class="background" aria-hidden="true" d="M0,0h71v157h-71Z" pointer-events="none"/><g><g class="mark-group role-legend-entry"><g transform="translate(0,16)"><path class="background" aria-hidden="true" d="M0,0h0v0h0Z" pointer-events="none"/><g><g class="mark-group role-scope" role="graphics-object" aria-roledescription="group mark container"><g transform="translate(0,0)"><path class="background" aria-hidden="true" d="M0,0h70.2919921875v11h-70.2919921875Z" pointer-events="none" opacity="1"/><g><g class="mark-symbol role-legend-symbol" pointer-events="none"><path transform="translate(6,6)" d="M5,0A5,5,0,1,1,-5,0A5,5,0,1,1,5,0" fill="#4c78a8" stroke-width="1.5" opacity="1"/></g><g class="mark-text role-legend-label" pointer-events="none"><text text-anchor="start" transform="translate(16,9)" font-family="sans-serif" font-size="10px" fill="#000" opacity="1">Arabic</text></g></g><path class="foreground" aria-hidden="true" d="" pointer-events="none" display="none"/></g><g transform="translate(0,13)"><path class="background" aria-hidden="true" d="M0,0h70.2919921875v11h-70.2919921875Z" pointer-events="none" opacity="1"/><g><g class="mark-symbol role-legend-symbol" pointer-events="none"><path transform="translate(6,6)" d="M5,0A5,5,0,1,1,-5,0A5,5,0,1,1,5,0" fill="#f58518" stroke-width="1.5" opacity="1"/></g><g class="mark-text role-legend-label" pointer-events="none"><text text-anchor="start" transform="translate(16,9)" font-family="sans-serif" font-size="10px" fill="#000" opacity="1">Bangali</text></g></g><path class="foreground" aria-hidden="true" d="" pointer-events="none" display="none"/></g><g transform="translate(0,26)"><path class="background" aria-hidden="true" d="M0,0h70.2919921875v11h-70.2919921875Z" pointer-events="none" opacity="1"/><g><g class="mark-symbol role-legend-symbol" pointer-events="none"><path transform="translate(6,6)" d="M5,0A5,5,0,1,1,-5,0A5,5,0,1,1,5,0" fill="#e45756" stroke-width="1.5" opacity="1"/></g><g class="mark-text role-legend-label" pointer-events="none"><text text-anchor="start" transform="translate(16,9)" font-family="sans-serif" font-size="10px" fill="#000" opacity="1">Chinese Wu</text></g></g><path class="foreground" aria-hidden="true" d="" pointer-events="none" display="none"/></g><g transform="translate(0,39)"><path class="background" aria-hidden="true" d="M0,0h70.2919921875v11h-70.2919921875Z" pointer-events="none" opacity="1"/><g><g class="mark-symbol role-legend-symbol" pointer-events="none"><path transform="translate(6,6)" d="M5,0A5,5,0,1,1,-5,0A5,5,0,1,1,5,0" fill="#72b7b2" stroke-width="1.5" opacity="1"/></g><g class="mark-text role-legend-label" pointer-events="none"><text text-anchor="start" transform="translate(16,9)" font-family="sans-serif" font-size="10px" fill="#000" opacity="1">French</text></g></g><path class="foreground" aria-hidden="true" d="" pointer-events="none" display="none"/></g><g transform="translate(0,52)"><path class="background" aria-hidden="true" d="M0,0h70.2919921875v11h-70.2919921875Z" pointer-events="none" opacity="1"/><g><g class="mark-symbol role-legend-symbol" pointer-events="none"><path transform="translate(6,6)" d="M5,0A5,5,0,1,1,-5,0A5,5,0,1,1,5,0" fill="#54a24b" stroke-width="1.5" opacity="1"/></g><g class="mark-text role-legend-label" pointer-events="none"><text text-anchor="start" transform="translate(16,9)" font-family="sans-serif" font-size="10px" fill="#000" opacity="1">German</text></g></g><path class="foreground" aria-hidden="true" d="" pointer-events="none" display="none"/></g><g transform="translate(0,65)"><path class="background" aria-hidden="true" d="M0,0h70.2919921875v11h-70.2919921875Z" pointer-events="none" opacity="1"/><g><g class="mark-symbol role-legend-symbol" pointer-events="none"><path transform="translate(6,6)" d="M5,0A5,5,0,1,1,-5,0A5,5,0,1,1,5,0" fill="#eeca3b" stroke-width="1.5" opacity="1"/></g><g class="mark-text role-legend-label" pointer-events="none"><text text-anchor="start" transform="translate(16,9)" font-family="sans-serif" font-size="10px" fill="#000" opacity="1">Hindi</text></g></g><path class="foreground" aria-hidden="true" d="" pointer-events="none" display="none"/></g><g transform="translate(0,78)"><path class="background" aria-hidden="true" d="M0,0h70.2919921875v11h-70.2919921875Z" pointer-events="none" opacity="1"/><g><g class="mark-symbol role-legend-symbol" pointer-events="none"><path transform="translate(6,6)" d="M5,0A5,5,0,1,1,-5,0A5,5,0,1,1,5,0" fill="#b279a2" stroke-width="1.5" opacity="1"/></g><g class="mark-text role-legend-label" pointer-events="none"><text text-anchor="start" transform="translate(16,9)" font-family="sans-serif" font-size="10px" fill="#000" opacity="1">Indonesian</text></g></g><path class="foreground" aria-hidden="true" d="" pointer-events="none" display="none"/></g><g transform="translate(0,91)"><path class="background" aria-hidden="true" d="M0,0h70.2919921875v11h-70.2919921875Z" pointer-events="none" opacity="1"/><g><g class="mark-symbol role-legend-symbol" pointer-events="none"><path transform="translate(6,6)" d="M5,0A5,5,0,1,1,-5,0A5,5,0,1,1,5,0" fill="#ff9da6" stroke-width="1.5" opacity="1"/></g><g class="mark-text role-legend-label" pointer-events="none"><text text-anchor="start" transform="translate(16,9)" font-family="sans-serif" font-size="10px" fill="#000" opacity="1">Japanese</text></g></g><path class="foreground" aria-hidden="true" d="" pointer-events="none" display="none"/></g><g transform="translate(0,104)"><path class="background" aria-hidden="true" d="M0,0h70.2919921875v11h-70.2919921875Z" pointer-events="none" opacity="1"/><g><g class="mark-symbol role-legend-symbol" pointer-events="none"><path transform="translate(6,6)" d="M5,0A5,5,0,1,1,-5,0A5,5,0,1,1,5,0" fill="#9d755d" stroke-width="1.5" opacity="1"/></g><g class="mark-text role-legend-label" pointer-events="none"><text text-anchor="start" transform="translate(16,9)" font-family="sans-serif" font-size="10px" fill="#000" opacity="1">Portuguese</text></g></g><path class="foreground" aria-hidden="true" d="" pointer-events="none" display="none"/></g><g transform="translate(0,117)"><path class="background" aria-hidden="true" d="M0,0h70.2919921875v11h-70.2919921875Z" pointer-events="none" opacity="1"/><g><g class="mark-symbol role-legend-symbol" pointer-events="none"><path transform="translate(6,6)" d="M5,0A5,5,0,1,1,-5,0A5,5,0,1,1,5,0" fill="#bab0ac" stroke-width="1.5" opacity="1"/></g><g class="mark-text role-legend-label" pointer-events="none"><text text-anchor="start" transform="translate(16,9)" font-family="sans-serif" font-size="10px" fill="#000" opacity="1">Russian</text></g></g><path class="foreground" aria-hidden="true" d="" pointer-events="none" display="none"/></g><g transform="translate(0,130)"><path class="background" aria-hidden="true" d="M0,0h70.2919921875v11h-70.2919921875Z" pointer-events="none" opacity="1"/><g><g class="mark-symbol role-legend-symbol" pointer-events="none"><path transform="translate(6,6)" d="M5,0A5,5,0,1,1,-5,0A5,5,0,1,1,5,0" fill="#4c78a8" stroke-width="1.5" opacity="1"/></g><g class="mark-text role-legend-label" pointer-events="none"><text text-anchor="start" transform="translate(16,9)" font-family="sans-serif" font-size="10px" fill="#000" opacity="1">Spanish</text></g></g><path class="foreground" aria-hidden="true" d="" pointer-events="none" display="none"/></g></g></g><path class="foreground" aria-hidden="true" d="" pointer-events="none" display="none"/></g></g><g class="mark-text role-legend-title" pointer-events="none"><text text-anchor="start" transform="translate(0,9)" font-family="sans-serif" font-size="11px" font-weight="bold" fill="#000" opacity="1">language</text></g></g><path class="foreground" aria-hidden="true" d="" pointer-events="none" display="none"/></g></g></g><path class="foreground" aria-hidden="true" d="" display="none"/></g></g></g><defs><clipPath id="clip1"><rect x="0" y="0" width="400" height="300"/></clipPath><clipPath id="clip2"><rect x="0" y="0" width="400" height="300"/></clipPath><clipPath id="clip3"><rect x="0" y="0" width="400" height="300"/></clipPath><clipPath id="clip4"><rect x="0" y="0" width="400" height="300"/></clipPath><clipPath id="clip5"><rect x="0" y="0" width="400" height="300"/></clipPath><clipPath id="clip6"><rect x="0" y="0" width="400" height="300"/></clipPath><clipPath id="clip7"><rect x="0" y="0" width="400" height="300"/></clipPath><clipPath id="clip8"><rect x="0" y="0" width="400" height="300"/></clipPath><clipPath id="clip9"><rect x="0" y="0" width="400" height="300"/></clipPath><clipPath id="clip10"><rect x="0" y="0" width="400" height="300"/></clipPath><clipPath id="clip11"><rect x="0" y="0" width="400" height="300"/></clipPath></defs></svg>